<?xml version="1.0" standalone="no"?>
<!DOCTYPE svg PUBLIC "-//W3C//DTD SVG 20010904//EN"
 "http://www.w3.org/TR/2001/REC-SVG-20010904/DTD/svg10.dtd">
<svg version="1.0" xmlns="http://www.w3.org/2000/svg"
 width="256.000000pt" height="256.000000pt" viewBox="0 0 256.000000 256.000000"
 preserveAspectRatio="xMidYMid meet">
<metadata>
Created by potrace 1.14, written by Peter Selinger 2001-2017
</metadata>
<g transform="translate(0.000000,256.000000) scale(0.100000,-0.100000)"
fill="#000000" stroke="none">
<path d="M480 2496 c-90 -27 -146 -55 -209 -104 -102 -80 -174 -191 -210 -322
-21 -73 -21 -92 -19 -815 l3 -740 26 -67 c47 -120 105 -201 209 -288 13 -12
56 -36 95 -55 134 -66 121 -65 925 -62 399 1 738 6 753 10 189 50 335 172 413
342 25 53 28 63 44 140 5 22 9 360 9 750 0 660 -2 715 -19 781 -56 216 -212
373 -429 433 -71 20 -99 20 -795 20 -718 0 -721 0 -796 -23z"/>
</g>
</svg>
